<?xml version="1.0" standalone="no"?>
<!DOCTYPE svg PUBLIC "-//W3C//DTD SVG 20010904//EN"
 "http://www.w3.org/TR/2001/REC-SVG-20010904/DTD/svg10.dtd">
<svg version="1.0" xmlns="http://www.w3.org/2000/svg"
 width="140.000000pt" height="140.000000pt" viewBox="0 0 140.000000 140.000000"
 preserveAspectRatio="xMidYMid meet">
<metadata>
Created by potrace 1.11, written by Peter Selinger 2001-2013
</metadata>
<g transform="translate(0.000000,140.000000) scale(0.100000,-0.100000)"
fill="#000000" stroke="none">
<path d="M640 1241 c-8 -5 -33 -11 -56 -14 -77 -11 -156 -48 -204 -97 -51 -50
-90 -135 -90 -194 0 -18 -8 -44 -18 -57 -40 -52 -37 -80 9 -100 20 -8 28 -17
24 -26 -10 -27 -23 -156 -24 -248 l-1 -51 -34 4 c-37 4 -136 -43 -136 -65 0
-15 63 -35 111 -35 41 1 42 0 69 -108 15 -57 25 -68 53 -63 26 5 130 -40 119
-52 -4 -5 -1 -5 6 -1 7 4 36 1 65 -7 37 -10 91 -13 192 -10 168 4 184 6 178
15 -2 5 -1 8 4 9 4 0 16 2 27 4 16 3 16 1 -4 -20 l-22 -24 22 6 c12 3 31 18
42 34 12 15 33 33 48 39 37 15 75 57 90 100 6 19 14 80 16 135 4 119 9 145 29
145 16 0 18 -10 19 -74 1 -29 5 -40 19 -42 15 -2 21 9 19 36 -2 32 -15 86 -23
97 -6 7 -24 13 -40 13 -26 0 -29 4 -30 33 0 17 -2 41 -5 52 -17 87 -15 99 18
120 17 11 33 25 35 32 2 6 -12 27 -31 45 -26 26 -37 46 -41 77 -12 94 -84 192
-176 239 -75 38 -249 71 -279 53z"/>
</g>
</svg>
