<?xml version="1.0" encoding="windows-1252"?>
<!-- Generator: Adobe Illustrator 16.0.0, SVG Export Plug-In . SVG Version: 6.00 Build 0)  -->
<!DOCTYPE svg PUBLIC "-//W3C//DTD SVG 1.1//EN" "http://www.w3.org/Graphics/SVG/1.1/DTD/svg11.dtd">
<svg version="1.1" id="Layer_1" xmlns:sketch="http://www.bohemiancoding.com/sketch/ns" xmlns="http://www.w3.org/2000/svg" xmlns:xlink="http://www.w3.org/1999/xlink" x="0px" y="0px" width="240px" height="84px" viewBox="0 0 240 84" style="enable-background:new 0 0 240 84;" xml:space="preserve">
<title>meteor-logo</title>
<desc>Created with Sketch.</desc>
<g>
	<path id="path" style="fill:#DF4F4F;" d="M142.348,2.355l50.202,53.176c0,0,1.711,1.207,3.019-0.2   c1.308-1.408,0.302-2.815,0.302-2.815L142.348,2.355z"/>
	<path id="path_1_" style="fill:#DF4F4F;" d="M158.243,7.381l38.23,41.215c0,0,1.71,1.206,3.019-0.202   c1.308-1.407,0.301-2.813,0.301-2.813L158.243,7.381z"/>
	<path id="path_2_" style="fill:#DF4F4F;" d="M147.076,18.137l38.229,41.214c0,0,1.711,1.208,3.019-0.2   c1.308-1.407,0.302-2.814,0.302-2.814L147.076,18.137z"/>
	<path id="path_3_" style="fill:#DF4F4F;" d="M171.681,11.704l26.71,28.793c0,0,1.194,0.844,2.108-0.141   c0.913-0.982,0.211-1.966,0.211-1.966L171.681,11.704z"/>
	<path id="path_4_" style="fill:#DF4F4F;" d="M150.754,30.602l26.71,28.794c0,0,1.195,0.843,2.109-0.14   c0.913-0.984,0.21-1.968,0.21-1.968L150.754,30.602z"/>
	<path id="path_5_" style="fill:#DF4F4F;" d="M185.407,17.936l12.105,13.09c0,0,0.59,0.395,1.043-0.066   c0.451-0.46,0.104-0.921,0.104-0.921L185.407,17.936z"/>
	<path id="path_6_" style="fill:#DF4F4F;" d="M157.438,43.871l12.105,13.09c0,0,0.591,0.395,1.043-0.065   c0.452-0.461,0.104-0.922,0.104-0.922L157.438,43.871z"/>
	<path style="fill:#26262C;" d="M231.233,46.944c0,0,7.598-3.003,7.598-11.148c0-11.5-10.449-11.908-10.449-11.908l-19.395-0.001   v35.298h7.985V47.799h5.989l7.701,11.386h9.127L231.233,46.944z M227.24,40.967h-10.268V30.719h9.412c0,0,4.78-0.194,4.78,5.123   C231.165,40.966,227.24,40.967,227.24,40.967z"/>
	<path id="e2" style="fill:#26262C;" d="M120.571,23.888v35.297h26.81v-6.832h-18.824v-7.4h16.257V38.12h-16.257v-7.406h18.824   v-6.826H120.571z"/>
	<path id="t" style="fill:#26262C;" d="M81.781,23.888v6.832h10.553v28.465h7.986V30.719h10.553v-6.832H81.781z"/>
	<path id="e" style="fill:#26262C;" d="M45.274,23.888v35.297h26.81v-6.832H53.26v-7.4h16.257V38.12H53.26v-7.406h18.824v-6.826   H45.274z"/>
	<path id="m" style="fill:#26262C;" d="M0.21,23.887v35.298h7.98V36.98l9.697,14.232l9.703-14.232v22.204h7.986V23.887h-7.986   l-9.703,14.517L8.191,23.887H0.21z"/>
</g>
</svg>