<?xml version="1.0" standalone="no"?>
<!DOCTYPE svg PUBLIC "-//W3C//DTD SVG 20010904//EN"
 "http://www.w3.org/TR/2001/REC-SVG-20010904/DTD/svg10.dtd">
<svg version="1.0" xmlns="http://www.w3.org/2000/svg"
 width="700.000000pt" height="700.000000pt" viewBox="0 0 700.000000 700.000000"
 preserveAspectRatio="xMidYMid meet">
<metadata>
Created by potrace 1.11, written by Peter Selinger 2001-2013
</metadata>
<g transform="translate(0.000000,700.000000) scale(0.100000,-0.100000)"
fill="#000000" stroke="none">
<path d="M3697 6955 c-94 -19 -151 -52 -155 -89 -2 -16 1 -33 7 -39 8 -8 -23
-23 -107 -52 -548 -194 -993 -552 -1203 -969 -77 -151 -166 -444 -142 -467 7
-6 250 -109 259 -109 2 0 -6 19 -16 43 -30 66 -27 172 9 274 103 296 497 749
856 986 108 71 436 237 467 237 56 -1 53 -14 -34 -126 -335 -431 -567 -850
-679 -1225 -16 -54 -29 -105 -29 -114 0 -12 13 -15 59 -15 32 0 72 -3 87 -6
l29 -6 -3 75 c-12 225 190 661 607 1315 l53 82 74 0 c74 0 75 -1 92 -31 9 -17
82 -136 161 -263 278 -448 373 -623 430 -791 35 -105 61 -243 61 -327 l0 -60
28 6 c15 3 53 10 86 16 l59 12 -7 80 c-21 247 -180 541 -599 1105 -99 132
-179 245 -179 249 1 4 27 13 59 20 32 7 65 13 73 15 16 4 114 -66 479 -337
405 -302 585 -489 695 -726 60 -127 79 -216 80 -360 0 -65 1 -118 2 -118 8 0
259 62 265 65 21 13 -69 302 -141 452 -204 428 -550 724 -1152 983 l-166 72
16 28 c16 28 16 30 -8 55 -13 14 -52 34 -89 46 -87 27 -286 35 -384 14z"/>
<path d="M6260 4964 c-120 -29 -471 -73 -720 -89 -52 -4 -216 -17 -365 -30
-1142 -102 -2034 -98 -3090 10 -320 33 -633 77 -657 91 -3 2 -19 -13 -35 -33
-34 -44 -123 -181 -123 -189 0 -4 -16 -28 -35 -54 -19 -26 -44 -67 -55 -91
-65 -144 42 -267 313 -359 42 -15 75 -29 73 -31 -7 -7 -60 -355 -91 -594 -63
-486 -96 -1069 -79 -1385 l9 -164 35 -8 c23 -4 39 -3 47 5 22 22 122 222 162
323 56 143 103 311 145 519 35 176 49 267 121 785 19 140 39 269 43 285 8 28
9 25 21 -35 22 -113 100 -405 147 -553 45 -141 134 -398 141 -406 2 -3 8 0 13
5 6 6 -1 63 -20 159 -53 276 -64 373 -64 615 -1 261 7 344 32 336 9 -3 100
-12 202 -21 352 -29 321 -24 305 -49 -22 -33 -52 -125 -60 -183 -16 -116 38
-263 135 -366 70 -75 141 -119 257 -160 80 -28 100 -31 213 -31 142 -1 208 14
328 71 105 49 199 144 249 249 37 77 38 82 38 194 0 98 -3 122 -23 164 -12 27
-21 50 -20 50 2 1 71 0 154 -2 l151 -4 -25 -66 c-18 -52 -24 -87 -24 -152 0
-231 168 -424 432 -496 89 -25 271 -25 360 0 213 59 371 204 420 386 28 106 5
255 -55 351 -14 21 -25 40 -25 42 0 3 35 7 78 11 42 4 148 16 235 28 87 11
160 18 163 16 2 -3 7 -106 10 -229 8 -254 1 -321 -52 -558 -19 -85 -34 -158
-34 -163 0 -19 27 -6 37 20 6 15 30 70 52 123 67 159 107 336 140 624 l18 150
7 -65 c51 -454 163 -1029 269 -1390 23 -74 32 -122 27 -135 -8 -20 -44 -104
-547 -1290 l-254 -600 -105 -105 c-57 -58 -104 -109 -104 -113 0 -15 39 -4
184 51 l148 57 45 110 45 111 120 38 c217 69 451 203 549 314 72 82 144 248
180 417 25 118 24 195 -1 195 -4 0 -151 -150 -326 -332 -363 -380 -458 -477
-451 -463 3 6 87 208 187 450 249 602 402 970 404 972 2 2 20 -36 41 -85 43
-100 98 -187 131 -208 18 -12 30 -13 62 -5 l40 11 -4 153 c-3 83 -9 282 -15
441 l-11 288 38 55 c20 29 49 63 65 73 34 25 81 26 102 2 41 -45 78 -171 92
-317 8 -80 11 -86 29 -79 15 6 14 25 -5 164 -26 188 -84 290 -165 290 -32 0
-34 2 -34 36 0 31 4 37 37 50 21 9 49 13 67 10 22 -4 27 -3 16 4 -17 11 -92
13 -138 4 l-30 -6 14 -51 13 -50 -51 -56 c-52 -56 -77 -104 -158 -298 -23 -57
-46 -103 -51 -103 -6 0 -22 8 -37 17 -15 9 -28 18 -30 19 -1 1 18 56 42 122
49 132 97 232 144 302 17 24 29 47 27 50 -2 4 -11 78 -20 166 -32 330 -85 651
-140 849 -13 49 -23 90 -22 91 1 1 34 11 72 24 170 55 303 139 339 214 24 50
20 114 -10 173 -41 84 -192 213 -354 305 -43 25 -47 25 -100 12z m-1052 -963
c149 -219 57 -508 -201 -630 -45 -21 -107 -44 -137 -51 -63 -15 -202 -18 -275
-6 l-50 8 52 20 c68 25 127 90 143 158 39 165 -145 315 -315 256 -97 -33 -153
-99 -164 -194 l-7 -57 -32 50 c-72 111 -83 268 -26 381 l29 59 270 7 c149 4
351 16 450 27 99 10 191 19 205 20 19 1 32 -10 58 -48z m-2003 9 c132 -6 317
-10 411 -10 l172 0 20 -42 c103 -221 6 -465 -231 -577 -118 -55 -238 -79 -343
-65 l-57 7 34 14 c143 60 187 217 95 337 -62 82 -199 110 -301 62 -95 -44
-142 -124 -132 -225 l6 -56 -40 44 c-120 134 -144 329 -58 479 l30 52 77 -5
c42 -3 185 -10 317 -15z"/>
<path d="M6876 2507 c-10 -40 -7 -77 8 -77 19 0 24 18 19 58 -6 40 -19 49 -27
19z"/>
<path d="M6785 2310 c3 -5 8 -10 11 -10 2 0 4 5 4 10 0 6 -5 10 -11 10 -5 0
-7 -4 -4 -10z"/>
<path d="M5215 2075 c-21 -9 -129 -76 -240 -149 -274 -184 -413 -250 -575
-276 -85 -13 -226 -13 -328 1 -44 6 -88 9 -97 7 -10 -2 16 -27 72 -69 419
-317 784 -364 1088 -139 130 96 280 310 306 438 12 56 11 66 -7 108 -10 26
-31 56 -46 67 -35 26 -119 32 -173 12z"/>
<path d="M1080 1630 c80 -4 674 -8 1321 -9 1123 -1 1177 -2 1181 -19 3 -10
-12 -317 -33 -682 -45 -773 -41 -699 -29 -680 5 8 10 47 10 86 0 39 3 86 6
103 l6 31 368 0 368 0 -10 43 c-14 65 -52 140 -93 185 -44 50 -72 40 240 82
126 18 231 33 232 34 2 1 -40 38 -92 82 -104 87 -201 144 -245 144 -15 0 -71
-16 -124 -35 -53 -19 -96 -33 -96 -30 0 2 32 22 71 43 39 22 67 42 62 45 -4 3
-25 8 -45 12 -31 6 -46 2 -84 -20 -26 -15 -64 -43 -85 -62 l-38 -34 -61 45
c-33 25 -85 57 -116 72 -52 25 -58 26 -110 15 -30 -7 -54 -17 -54 -22 0 -6 4
-7 10 -4 10 6 162 -62 195 -88 19 -16 19 -16 -17 -17 -44 0 -255 80 -238 90 8
5 9 9 1 11 -7 3 -7 64 2 214 7 116 13 241 12 280 0 64 -2 70 -25 82 -20 10
-291 12 -1330 11 -718 -1 -1240 -5 -1160 -8z m2543 -886 l38 -7 -31 -32 c-18
-18 -43 -50 -56 -72 l-23 -38 -1 83 c0 75 2 83 18 78 9 -3 34 -8 55 -12z"/>
<path d="M890 1583 c0 -17 16 -316 35 -664 19 -349 35 -646 35 -660 0 -22 -6
-28 -33 -33 -58 -11 -71 -28 -77 -97 -7 -85 -31 -104 -133 -103 -106 1 -187
49 -187 110 0 34 24 46 118 61 109 17 174 38 198 64 17 19 17 21 -4 63 -27 53
-31 57 -108 95 -172 85 -462 112 -597 56 -100 -41 -135 -114 -77 -155 30 -21
32 -22 400 -14 342 6 370 6 376 -10 13 -33 -50 -59 -199 -82 -96 -14 -127 -31
-127 -71 0 -89 131 -157 258 -133 80 14 102 39 102 111 0 55 2 59 31 75 23 11
40 14 63 7 39 -10 2511 -7 2530 4 8 4 -551 7 -1242 5 -752 -1 -1259 1 -1265 7
-5 5 -26 318 -47 696 -21 377 -41 689 -44 692 -3 4 -6 -7 -6 -24z"/>
<path d="M2168 1360 c-94 -16 -120 -62 -117 -210 l2 -108 -55 -64 c-31 -34
-59 -74 -63 -88 -4 -14 -21 -49 -38 -79 -16 -29 -30 -68 -31 -85 -1 -29 -4
-31 -51 -38 -60 -9 -75 -26 -75 -89 0 -27 -5 -60 -12 -74 -9 -21 -9 -29 3 -40
15 -15 200 -62 281 -72 43 -5 50 -3 79 26 39 40 64 45 162 33 65 -9 82 -15
103 -37 23 -25 31 -27 79 -23 38 3 64 12 88 31 19 14 59 37 88 50 95 42 108
77 44 117 -21 13 -38 34 -45 55 -6 19 -15 35 -18 35 -4 0 -7 28 -7 63 -1 73
-26 129 -89 197 -69 74 -96 129 -103 209 -4 43 -14 84 -27 107 -35 63 -117 97
-198 84z m109 -145 c19 -13 22 -25 21 -76 l-1 -60 -48 -25 c-53 -26 -89 -30
-122 -12 -20 10 -21 10 -8 -5 18 -23 76 -21 126 3 22 11 45 19 51 20 9 0 64
-98 64 -115 0 -4 11 -21 24 -38 28 -36 49 -110 44 -153 -2 -21 -9 -30 -25 -32
-32 -5 -43 -23 -50 -83 -7 -58 -16 -69 -78 -99 -39 -19 -126 -27 -159 -14 -26
10 -40 43 -25 60 15 18 -2 39 -77 90 -43 30 -54 43 -54 64 0 35 24 103 48 138
11 15 22 40 26 56 4 16 18 43 32 61 13 17 24 37 24 43 0 7 3 12 8 12 92 5 114
10 153 33 24 15 39 27 32 27 -6 0 -27 -9 -46 -20 -40 -24 -112 -29 -146 -10
l-23 12 23 24 c25 26 88 51 98 38 3 -5 13 -10 21 -10 8 -1 27 -5 43 -9 25 -7
27 -5 27 23 0 40 -28 51 -52 22 -16 -20 -18 -21 -25 -4 -4 11 1 23 16 36 28
22 31 22 58 3z m-137 -14 c15 -29 12 -50 -4 -28 -7 9 -21 17 -31 17 -14 0 -16
-6 -11 -30 3 -19 2 -29 -4 -25 -11 7 -14 68 -3 78 13 14 43 7 53 -12z m-211
-496 c31 -15 154 -166 165 -201 4 -14 -1 -30 -15 -47 -27 -35 -51 -34 -209 6
-111 29 -125 35 -121 52 2 11 5 45 8 75 6 67 16 80 60 80 23 0 41 8 56 24 27
30 23 29 56 11z m508 -36 c12 -30 14 -31 54 -26 22 3 51 15 64 27 l24 22 14
-34 c8 -18 31 -46 51 -62 31 -24 35 -30 24 -43 -7 -9 -32 -24 -56 -34 -24 -10
-63 -33 -88 -50 -52 -35 -97 -45 -138 -30 l-29 12 7 77 c14 160 17 172 40 172
15 0 25 -10 33 -31z"/>
</g>
</svg>
